<mxfile host="app.diagrams.net" agent="Mozilla/5.0 (Windows NT 10.0; Win64; x64) AppleWebKit/537.36 (KHTML, like Gecko) Chrome/132.0.0.0 Safari/537.36" version="26.0.6" pages="4">
  <diagram name="UserFLow" id="ObDIAdpBDKAcITgZASAe">
    <mxGraphModel dx="1434" dy="866" grid="1" gridSize="10" guides="1" tooltips="1" connect="1" arrows="1" fold="1" page="1" pageScale="1" pageWidth="827" pageHeight="1169" math="0" shadow="0">
      <root>
        <mxCell id="0" />
        <mxCell id="1" parent="0" />
        <mxCell id="-LbqQjKJZ6iAYc4i1D8i-1" value="Actor" style="shape=umlActor;verticalLabelPosition=bottom;verticalAlign=top;html=1;outlineConnect=0;" vertex="1" parent="1">
          <mxGeometry x="70.5" y="188" width="30" height="60" as="geometry" />
        </mxCell>
        <mxCell id="-LbqQjKJZ6iAYc4i1D8i-2" value="User" style="shape=umlActor;verticalLabelPosition=bottom;verticalAlign=top;html=1;outlineConnect=0;" vertex="1" parent="1">
          <mxGeometry x="650" y="200" width="20" height="40" as="geometry" />
        </mxCell>
        <mxCell id="-LbqQjKJZ6iAYc4i1D8i-3" value="" style="edgeStyle=orthogonalEdgeStyle;rounded=0;orthogonalLoop=1;jettySize=auto;html=1;" edge="1" parent="1" source="-LbqQjKJZ6iAYc4i1D8i-5" target="-LbqQjKJZ6iAYc4i1D8i-11">
          <mxGeometry relative="1" as="geometry" />
        </mxCell>
        <mxCell id="-LbqQjKJZ6iAYc4i1D8i-4" value="" style="edgeStyle=orthogonalEdgeStyle;rounded=0;orthogonalLoop=1;jettySize=auto;html=1;" edge="1" parent="1" source="-LbqQjKJZ6iAYc4i1D8i-5" target="-LbqQjKJZ6iAYc4i1D8i-19">
          <mxGeometry relative="1" as="geometry" />
        </mxCell>
        <mxCell id="-LbqQjKJZ6iAYc4i1D8i-5" value="Conversion&lt;div&gt;needed?&lt;/div&gt;" style="strokeWidth=2;html=1;shape=mxgraph.flowchart.decision;whiteSpace=wrap;" vertex="1" parent="1">
          <mxGeometry x="129.25" y="277" width="117.5" height="60" as="geometry" />
        </mxCell>
        <mxCell id="-LbqQjKJZ6iAYc4i1D8i-6" value="" style="edgeStyle=orthogonalEdgeStyle;rounded=0;orthogonalLoop=1;jettySize=auto;html=1;" edge="1" parent="1" source="-LbqQjKJZ6iAYc4i1D8i-7" target="-LbqQjKJZ6iAYc4i1D8i-13">
          <mxGeometry relative="1" as="geometry" />
        </mxCell>
        <mxCell id="-LbqQjKJZ6iAYc4i1D8i-7" value="Interface Grayed-out&lt;div&gt;(Except load buttons)&lt;/div&gt;" style="rounded=1;whiteSpace=wrap;html=1;absoluteArcSize=1;arcSize=14;strokeWidth=2;" vertex="1" parent="1">
          <mxGeometry x="118" y="109" width="140" height="50" as="geometry" />
        </mxCell>
        <mxCell id="-LbqQjKJZ6iAYc4i1D8i-8" value="" style="edgeStyle=orthogonalEdgeStyle;rounded=0;orthogonalLoop=1;jettySize=auto;html=1;" edge="1" parent="1" source="-LbqQjKJZ6iAYc4i1D8i-9" target="-LbqQjKJZ6iAYc4i1D8i-7">
          <mxGeometry relative="1" as="geometry" />
        </mxCell>
        <mxCell id="-LbqQjKJZ6iAYc4i1D8i-9" value="New Session" style="strokeWidth=2;html=1;shape=mxgraph.flowchart.start_1;whiteSpace=wrap;" vertex="1" parent="1">
          <mxGeometry x="125.5" y="40" width="125" height="40" as="geometry" />
        </mxCell>
        <mxCell id="-LbqQjKJZ6iAYc4i1D8i-10" style="edgeStyle=orthogonalEdgeStyle;rounded=0;orthogonalLoop=1;jettySize=auto;html=1;exitX=0.5;exitY=1;exitDx=0;exitDy=0;entryX=0.5;entryY=0;entryDx=0;entryDy=0;" edge="1" parent="1" source="-LbqQjKJZ6iAYc4i1D8i-11" target="-LbqQjKJZ6iAYc4i1D8i-19">
          <mxGeometry relative="1" as="geometry" />
        </mxCell>
        <mxCell id="-LbqQjKJZ6iAYc4i1D8i-11" value="Convert to standardized format" style="rounded=1;whiteSpace=wrap;html=1;absoluteArcSize=1;arcSize=14;strokeWidth=2;" vertex="1" parent="1">
          <mxGeometry x="300.5" y="282" width="140" height="50" as="geometry" />
        </mxCell>
        <mxCell id="-LbqQjKJZ6iAYc4i1D8i-12" value="" style="edgeStyle=orthogonalEdgeStyle;rounded=0;orthogonalLoop=1;jettySize=auto;html=1;" edge="1" parent="1" source="-LbqQjKJZ6iAYc4i1D8i-13" target="-LbqQjKJZ6iAYc4i1D8i-5">
          <mxGeometry relative="1" as="geometry" />
        </mxCell>
        <mxCell id="-LbqQjKJZ6iAYc4i1D8i-13" value="Selection of Database or Log" style="html=1;strokeWidth=2;shape=manualInput;whiteSpace=wrap;rounded=1;size=13;arcSize=11;verticalAlign=middle;" vertex="1" parent="1">
          <mxGeometry x="126.75" y="188" width="122.5" height="60" as="geometry" />
        </mxCell>
        <mxCell id="-LbqQjKJZ6iAYc4i1D8i-14" value="Manual Input" style="html=1;strokeWidth=2;shape=manualInput;whiteSpace=wrap;rounded=1;size=13;arcSize=11;" vertex="1" parent="1">
          <mxGeometry x="680" y="200" width="100" height="40" as="geometry" />
        </mxCell>
        <mxCell id="-LbqQjKJZ6iAYc4i1D8i-15" value="Process" style="rounded=1;whiteSpace=wrap;html=1;absoluteArcSize=1;arcSize=14;strokeWidth=2;" vertex="1" parent="1">
          <mxGeometry x="680" y="110" width="100" height="30" as="geometry" />
        </mxCell>
        <mxCell id="-LbqQjKJZ6iAYc4i1D8i-16" value="Start" style="strokeWidth=2;html=1;shape=mxgraph.flowchart.start_1;whiteSpace=wrap;" vertex="1" parent="1">
          <mxGeometry x="680" y="70" width="100" height="30" as="geometry" />
        </mxCell>
        <mxCell id="-LbqQjKJZ6iAYc4i1D8i-17" value="Decision" style="strokeWidth=2;html=1;shape=mxgraph.flowchart.decision;whiteSpace=wrap;" vertex="1" parent="1">
          <mxGeometry x="680" y="150" width="100" height="40" as="geometry" />
        </mxCell>
        <mxCell id="-LbqQjKJZ6iAYc4i1D8i-18" value="Actor" style="shape=umlActor;verticalLabelPosition=bottom;verticalAlign=top;html=1;outlineConnect=0;" vertex="1" parent="1">
          <mxGeometry x="70" y="376" width="30" height="60" as="geometry" />
        </mxCell>
        <mxCell id="-LbqQjKJZ6iAYc4i1D8i-19" value="Selection of remaining input" style="html=1;strokeWidth=2;shape=manualInput;whiteSpace=wrap;rounded=1;size=13;arcSize=11;verticalAlign=middle;" vertex="1" parent="1">
          <mxGeometry x="126.25" y="376" width="122.5" height="60" as="geometry" />
        </mxCell>
        <mxCell id="-LbqQjKJZ6iAYc4i1D8i-20" value="Yes" style="text;html=1;align=center;verticalAlign=middle;whiteSpace=wrap;rounded=0;" vertex="1" parent="1">
          <mxGeometry x="230.5" y="277" width="60" height="30" as="geometry" />
        </mxCell>
        <mxCell id="-LbqQjKJZ6iAYc4i1D8i-21" value="No" style="text;html=1;align=center;verticalAlign=middle;whiteSpace=wrap;rounded=0;" vertex="1" parent="1">
          <mxGeometry x="118" y="327" width="60" height="30" as="geometry" />
        </mxCell>
        <mxCell id="-LbqQjKJZ6iAYc4i1D8i-22" value="" style="edgeStyle=orthogonalEdgeStyle;rounded=0;orthogonalLoop=1;jettySize=auto;html=1;" edge="1" parent="1" source="-LbqQjKJZ6iAYc4i1D8i-24" target="-LbqQjKJZ6iAYc4i1D8i-25">
          <mxGeometry relative="1" as="geometry" />
        </mxCell>
        <mxCell id="-LbqQjKJZ6iAYc4i1D8i-23" style="edgeStyle=orthogonalEdgeStyle;rounded=0;orthogonalLoop=1;jettySize=auto;html=1;exitX=0.5;exitY=1;exitDx=0;exitDy=0;exitPerimeter=0;entryX=0.5;entryY=0;entryDx=0;entryDy=0;" edge="1" parent="1" source="-LbqQjKJZ6iAYc4i1D8i-24" target="-LbqQjKJZ6iAYc4i1D8i-30">
          <mxGeometry relative="1" as="geometry" />
        </mxCell>
        <mxCell id="-LbqQjKJZ6iAYc4i1D8i-24" value="Conversion&lt;div&gt;needed?&lt;/div&gt;" style="strokeWidth=2;html=1;shape=mxgraph.flowchart.decision;whiteSpace=wrap;" vertex="1" parent="1">
          <mxGeometry x="129.25" y="467" width="117.5" height="60" as="geometry" />
        </mxCell>
        <mxCell id="-LbqQjKJZ6iAYc4i1D8i-25" value="Convert to standardized format" style="rounded=1;whiteSpace=wrap;html=1;absoluteArcSize=1;arcSize=14;strokeWidth=2;" vertex="1" parent="1">
          <mxGeometry x="300.5" y="472" width="140" height="50" as="geometry" />
        </mxCell>
        <mxCell id="-LbqQjKJZ6iAYc4i1D8i-26" value="Yes" style="text;html=1;align=center;verticalAlign=middle;whiteSpace=wrap;rounded=0;" vertex="1" parent="1">
          <mxGeometry x="230.5" y="467" width="60" height="30" as="geometry" />
        </mxCell>
        <mxCell id="-LbqQjKJZ6iAYc4i1D8i-27" value="No" style="text;html=1;align=center;verticalAlign=middle;whiteSpace=wrap;rounded=0;" vertex="1" parent="1">
          <mxGeometry x="118" y="517" width="60" height="30" as="geometry" />
        </mxCell>
        <mxCell id="-LbqQjKJZ6iAYc4i1D8i-28" style="edgeStyle=orthogonalEdgeStyle;rounded=0;orthogonalLoop=1;jettySize=auto;html=1;exitX=0.5;exitY=1;exitDx=0;exitDy=0;entryX=0.5;entryY=0;entryDx=0;entryDy=0;entryPerimeter=0;" edge="1" parent="1" source="-LbqQjKJZ6iAYc4i1D8i-19" target="-LbqQjKJZ6iAYc4i1D8i-24">
          <mxGeometry relative="1" as="geometry" />
        </mxCell>
        <mxCell id="-LbqQjKJZ6iAYc4i1D8i-29" style="edgeStyle=orthogonalEdgeStyle;rounded=0;orthogonalLoop=1;jettySize=auto;html=1;exitX=0.5;exitY=1;exitDx=0;exitDy=0;" edge="1" parent="1" source="-LbqQjKJZ6iAYc4i1D8i-30" target="-LbqQjKJZ6iAYc4i1D8i-33">
          <mxGeometry relative="1" as="geometry" />
        </mxCell>
        <mxCell id="-LbqQjKJZ6iAYc4i1D8i-30" value="Enable Interface&lt;div&gt;Box1&lt;/div&gt;" style="rounded=1;whiteSpace=wrap;html=1;absoluteArcSize=1;arcSize=14;strokeWidth=2;" vertex="1" parent="1">
          <mxGeometry x="118" y="560" width="140" height="50" as="geometry" />
        </mxCell>
        <mxCell id="-LbqQjKJZ6iAYc4i1D8i-31" value="LEGEND" style="text;html=1;align=center;verticalAlign=middle;resizable=0;points=[];autosize=1;strokeColor=none;fillColor=none;fontStyle=1" vertex="1" parent="1">
          <mxGeometry x="695" y="30" width="70" height="30" as="geometry" />
        </mxCell>
        <mxCell id="-LbqQjKJZ6iAYc4i1D8i-32" value="Actor" style="shape=umlActor;verticalLabelPosition=bottom;verticalAlign=top;html=1;outlineConnect=0;" vertex="1" parent="1">
          <mxGeometry x="71" y="646" width="30" height="60" as="geometry" />
        </mxCell>
        <mxCell id="-LbqQjKJZ6iAYc4i1D8i-33" value="Selection of Filter type" style="html=1;strokeWidth=2;shape=manualInput;whiteSpace=wrap;rounded=1;size=13;arcSize=11;verticalAlign=middle;" vertex="1" parent="1">
          <mxGeometry x="127.25" y="646" width="122.5" height="60" as="geometry" />
        </mxCell>
        <mxCell id="-LbqQjKJZ6iAYc4i1D8i-34" value="&lt;div&gt;Filter selected?&lt;/div&gt;" style="strokeWidth=2;html=1;shape=mxgraph.flowchart.decision;whiteSpace=wrap;" vertex="1" parent="1">
          <mxGeometry x="129.25" y="740" width="117.5" height="60" as="geometry" />
        </mxCell>
        <mxCell id="-LbqQjKJZ6iAYc4i1D8i-35" value="Yes" style="text;html=1;align=center;verticalAlign=middle;whiteSpace=wrap;rounded=0;" vertex="1" parent="1">
          <mxGeometry x="230.5" y="740" width="60" height="30" as="geometry" />
        </mxCell>
        <mxCell id="-LbqQjKJZ6iAYc4i1D8i-36" value="No" style="text;html=1;align=center;verticalAlign=middle;whiteSpace=wrap;rounded=0;" vertex="1" parent="1">
          <mxGeometry x="118" y="790" width="60" height="30" as="geometry" />
        </mxCell>
        <mxCell id="-LbqQjKJZ6iAYc4i1D8i-37" style="edgeStyle=orthogonalEdgeStyle;rounded=0;orthogonalLoop=1;jettySize=auto;html=1;exitX=0.5;exitY=1;exitDx=0;exitDy=0;entryX=0.5;entryY=0;entryDx=0;entryDy=0;entryPerimeter=0;" edge="1" parent="1" source="-LbqQjKJZ6iAYc4i1D8i-33" target="-LbqQjKJZ6iAYc4i1D8i-34">
          <mxGeometry relative="1" as="geometry" />
        </mxCell>
      </root>
    </mxGraphModel>
  </diagram>
  <diagram id="nO0aUaHFPe-GuP9JmfgX" name="InterfaceRequirements">
    <mxGraphModel dx="2074" dy="1106" grid="1" gridSize="10" guides="1" tooltips="1" connect="1" arrows="1" fold="1" page="1" pageScale="1" pageWidth="827" pageHeight="1169" math="0" shadow="0">
      <root>
        <mxCell id="0" />
        <mxCell id="1" parent="0" />
        <mxCell id="r0Y1Ve0F3AqfyRtgB-6B-1" value="Filter Category" style="swimlane;whiteSpace=wrap;html=1;swimlaneLine=1;rounded=1;" parent="1" vertex="1">
          <mxGeometry x="470" y="27" width="170" height="113" as="geometry">
            <mxRectangle x="50" y="260" width="120" height="30" as="alternateBounds" />
          </mxGeometry>
        </mxCell>
        <mxCell id="r0Y1Ve0F3AqfyRtgB-6B-5" value="No Filter&lt;div&gt;Filter by ID&lt;/div&gt;&lt;div&gt;Filter by Node&lt;/div&gt;&lt;div&gt;Filter by ECU&lt;/div&gt;&lt;div&gt;Filter by Network / Bus&lt;/div&gt;" style="text;html=1;align=left;verticalAlign=top;resizable=0;points=[];autosize=1;strokeColor=none;fillColor=none;spacingLeft=5;" parent="r0Y1Ve0F3AqfyRtgB-6B-1" vertex="1">
          <mxGeometry y="23" width="150" height="90" as="geometry" />
        </mxCell>
        <mxCell id="r0Y1Ve0F3AqfyRtgB-6B-3" value="Box1 - Filter Category" style="text;html=1;align=left;verticalAlign=middle;resizable=0;points=[];autosize=1;strokeColor=none;fillColor=none;fontStyle=1;fontSize=22;" parent="1" vertex="1">
          <mxGeometry x="45" y="30" width="240" height="40" as="geometry" />
        </mxCell>
        <mxCell id="r0Y1Ve0F3AqfyRtgB-6B-9" value="Shall be a Droplist so only one option can be selected.&lt;div&gt;Only list options available in the database.&lt;/div&gt;&lt;div&gt;Init with &quot;None Selected&quot; to avoid populating interface unnecessarily.&lt;/div&gt;&lt;div&gt;Remain inactive until database AND log are loaded&lt;/div&gt;" style="text;html=1;align=left;verticalAlign=top;resizable=0;points=[];autosize=1;strokeColor=none;fillColor=none;" parent="1" vertex="1">
          <mxGeometry x="45" y="70" width="390" height="70" as="geometry" />
        </mxCell>
        <mxCell id="r0Y1Ve0F3AqfyRtgB-6B-10" value="Only become available when Box1 has a valid input.&lt;div&gt;List (content) refers to option selected on Box1.&lt;/div&gt;&lt;div&gt;Itens present in both database and log shall be available.&lt;/div&gt;&lt;div&gt;Itens present in database only shall be grayout.&lt;/div&gt;&lt;div&gt;If list is empty (no valid itens), it shall display &quot;No Items&quot;.&lt;/div&gt;&lt;div&gt;List shall be in alphabetical order.&lt;/div&gt;&lt;div&gt;Box2 shall not occupy more than 1/3 of vertical length.&lt;/div&gt;&lt;div&gt;Scrollbar shall appear if the list cannot fit into max vertical length.&lt;/div&gt;&lt;div&gt;Multiple selection is allowed.&lt;/div&gt;" style="text;html=1;align=left;verticalAlign=top;resizable=0;points=[];autosize=1;strokeColor=none;fillColor=none;" parent="1" vertex="1">
          <mxGeometry x="44" y="198" width="370" height="140" as="geometry" />
        </mxCell>
        <mxCell id="r0Y1Ve0F3AqfyRtgB-6B-11" value="Only become available when Box2 has a valid input.&lt;div&gt;List (content) refers to options selected on Box2.&lt;/div&gt;&lt;div&gt;Itens present in both database and log shall be available.&lt;/div&gt;&lt;div&gt;Itens present in database only shall be grayout.&lt;/div&gt;&lt;div&gt;If list is empty (no valid itens), it shall display &quot;No Items&quot;.&lt;/div&gt;&lt;div&gt;List shall be in alphabetical order.&lt;/div&gt;&lt;div&gt;Box2 shall not occupy more than 1/3 of vertical length.&lt;/div&gt;&lt;div&gt;Scrollbar shall appear if the list cannot fit into max vertical length.&lt;/div&gt;&lt;div&gt;Multiple selection is allowed.&lt;/div&gt;" style="text;html=1;align=left;verticalAlign=top;resizable=0;points=[];autosize=1;strokeColor=none;fillColor=none;" parent="1" vertex="1">
          <mxGeometry x="44" y="408" width="370" height="140" as="geometry" />
        </mxCell>
        <mxCell id="r0Y1Ve0F3AqfyRtgB-6B-12" value="Box2 - Filter According Category" style="text;html=1;align=left;verticalAlign=middle;resizable=0;points=[];autosize=1;strokeColor=none;fillColor=none;fontStyle=1;fontSize=22;" parent="1" vertex="1">
          <mxGeometry x="45" y="158" width="340" height="40" as="geometry" />
        </mxCell>
        <mxCell id="r0Y1Ve0F3AqfyRtgB-6B-13" value="Box3 - Filter by Signal" style="text;html=1;align=left;verticalAlign=middle;resizable=0;points=[];autosize=1;strokeColor=none;fillColor=none;fontStyle=1;fontSize=22;" parent="1" vertex="1">
          <mxGeometry x="44" y="368" width="240" height="40" as="geometry" />
        </mxCell>
        <mxCell id="r0Y1Ve0F3AqfyRtgB-6B-14" value="No Itens" style="swimlane;whiteSpace=wrap;html=1;swimlaneLine=1;rounded=1;" parent="1" vertex="1" collapsed="1">
          <mxGeometry x="470" y="178" width="140" height="30" as="geometry">
            <mxRectangle x="470" y="190" width="170" height="113" as="alternateBounds" />
          </mxGeometry>
        </mxCell>
        <mxCell id="r0Y1Ve0F3AqfyRtgB-6B-16" value="Filter by ID" style="swimlane;whiteSpace=wrap;html=1;swimlaneLine=1;rounded=1;" parent="1" vertex="1">
          <mxGeometry x="640" y="178" width="140" height="83" as="geometry">
            <mxRectangle x="50" y="260" width="120" height="30" as="alternateBounds" />
          </mxGeometry>
        </mxCell>
        <mxCell id="r0Y1Ve0F3AqfyRtgB-6B-17" value="&lt;span style=&quot;color: rgb(71, 71, 71); font-family: Arial, sans-serif; font-size: 14px; text-wrap: wrap; background-color: rgb(255, 255, 255);&quot;&gt;☐&amp;nbsp;&lt;/span&gt;0x111&lt;br&gt;&lt;div&gt;&lt;span style=&quot;background-color: rgb(255, 255, 255); color: rgb(71, 71, 71); font-family: Arial, sans-serif; font-size: 14px; text-wrap: wrap;&quot;&gt;☐&amp;nbsp;&lt;/span&gt;0x123&lt;/div&gt;&lt;div&gt;&lt;span style=&quot;background-color: rgb(255, 255, 255); color: rgb(71, 71, 71); font-family: Arial, sans-serif; font-size: 14px; text-wrap: wrap;&quot;&gt;☐&amp;nbsp;&lt;/span&gt;0x1FAABBCC&lt;/div&gt;" style="text;html=1;align=left;verticalAlign=top;resizable=0;points=[];autosize=1;strokeColor=none;fillColor=none;spacingLeft=5;" parent="r0Y1Ve0F3AqfyRtgB-6B-16" vertex="1">
          <mxGeometry y="23" width="120" height="60" as="geometry" />
        </mxCell>
        <mxCell id="r0Y1Ve0F3AqfyRtgB-6B-30" value="" style="group" parent="r0Y1Ve0F3AqfyRtgB-6B-16" vertex="1" connectable="0">
          <mxGeometry x="120" y="23" width="20" height="60" as="geometry" />
        </mxCell>
        <mxCell id="r0Y1Ve0F3AqfyRtgB-6B-26" value="" style="rounded=0;whiteSpace=wrap;html=1;" parent="r0Y1Ve0F3AqfyRtgB-6B-30" vertex="1">
          <mxGeometry width="20" height="60" as="geometry" />
        </mxCell>
        <mxCell id="r0Y1Ve0F3AqfyRtgB-6B-27" value="" style="triangle;whiteSpace=wrap;html=1;rotation=-90;" parent="r0Y1Ve0F3AqfyRtgB-6B-30" vertex="1">
          <mxGeometry x="5" y="2" width="10" height="10" as="geometry" />
        </mxCell>
        <mxCell id="r0Y1Ve0F3AqfyRtgB-6B-28" value="" style="triangle;whiteSpace=wrap;html=1;rotation=90;" parent="r0Y1Ve0F3AqfyRtgB-6B-30" vertex="1">
          <mxGeometry x="5" y="48" width="10" height="10" as="geometry" />
        </mxCell>
        <mxCell id="r0Y1Ve0F3AqfyRtgB-6B-29" value="" style="rounded=1;whiteSpace=wrap;html=1;" parent="r0Y1Ve0F3AqfyRtgB-6B-30" vertex="1">
          <mxGeometry x="5" y="13.5" width="10" height="10" as="geometry" />
        </mxCell>
        <mxCell id="r0Y1Ve0F3AqfyRtgB-6B-18" value="Filter by ECU" style="swimlane;whiteSpace=wrap;html=1;swimlaneLine=1;rounded=1;" parent="1" vertex="1">
          <mxGeometry x="470" y="268" width="140" height="83" as="geometry">
            <mxRectangle x="50" y="260" width="120" height="30" as="alternateBounds" />
          </mxGeometry>
        </mxCell>
        <mxCell id="r0Y1Ve0F3AqfyRtgB-6B-19" value="&lt;div&gt;&lt;span style=&quot;background-color: rgb(255, 255, 255); color: rgb(71, 71, 71); font-family: Arial, sans-serif; font-size: 14px; text-wrap: wrap;&quot;&gt;☐&amp;nbsp;&lt;/span&gt;ECU_A&lt;/div&gt;&lt;div&gt;&lt;span style=&quot;background-color: rgb(255, 255, 255); color: rgb(71, 71, 71); font-family: Arial, sans-serif; font-size: 14px; text-wrap: wrap;&quot;&gt;☐&amp;nbsp;&lt;/span&gt;ECU_B&lt;/div&gt;&lt;div&gt;&lt;span style=&quot;background-color: rgb(255, 255, 255); color: rgb(71, 71, 71); font-family: Arial, sans-serif; font-size: 14px; text-wrap: wrap;&quot;&gt;☐&amp;nbsp;&lt;/span&gt;Gateway_Z&lt;/div&gt;" style="text;html=1;align=left;verticalAlign=top;resizable=0;points=[];autosize=1;strokeColor=none;fillColor=none;spacingLeft=5;" parent="r0Y1Ve0F3AqfyRtgB-6B-18" vertex="1">
          <mxGeometry y="23" width="100" height="60" as="geometry" />
        </mxCell>
        <mxCell id="r0Y1Ve0F3AqfyRtgB-6B-36" value="" style="group" parent="r0Y1Ve0F3AqfyRtgB-6B-18" vertex="1" connectable="0">
          <mxGeometry x="120" y="23" width="20" height="60" as="geometry" />
        </mxCell>
        <mxCell id="r0Y1Ve0F3AqfyRtgB-6B-37" value="" style="rounded=0;whiteSpace=wrap;html=1;" parent="r0Y1Ve0F3AqfyRtgB-6B-36" vertex="1">
          <mxGeometry width="20" height="60" as="geometry" />
        </mxCell>
        <mxCell id="r0Y1Ve0F3AqfyRtgB-6B-38" value="" style="triangle;whiteSpace=wrap;html=1;rotation=-90;" parent="r0Y1Ve0F3AqfyRtgB-6B-36" vertex="1">
          <mxGeometry x="5" y="2" width="10" height="10" as="geometry" />
        </mxCell>
        <mxCell id="r0Y1Ve0F3AqfyRtgB-6B-39" value="" style="triangle;whiteSpace=wrap;html=1;rotation=90;" parent="r0Y1Ve0F3AqfyRtgB-6B-36" vertex="1">
          <mxGeometry x="5" y="48" width="10" height="10" as="geometry" />
        </mxCell>
        <mxCell id="r0Y1Ve0F3AqfyRtgB-6B-40" value="" style="rounded=1;whiteSpace=wrap;html=1;" parent="r0Y1Ve0F3AqfyRtgB-6B-36" vertex="1">
          <mxGeometry x="5" y="13.5" width="10" height="10" as="geometry" />
        </mxCell>
        <mxCell id="r0Y1Ve0F3AqfyRtgB-6B-20" value="Filter by Network" style="swimlane;whiteSpace=wrap;html=1;swimlaneLine=1;rounded=1;" parent="1" vertex="1">
          <mxGeometry x="640" y="268" width="140" height="83" as="geometry">
            <mxRectangle x="50" y="260" width="120" height="30" as="alternateBounds" />
          </mxGeometry>
        </mxCell>
        <mxCell id="r0Y1Ve0F3AqfyRtgB-6B-21" value="&lt;div&gt;&lt;span style=&quot;background-color: rgb(255, 255, 255); color: rgb(71, 71, 71); font-family: Arial, sans-serif; font-size: 14px; text-wrap: wrap;&quot;&gt;☐&amp;nbsp;&lt;/span&gt;BUS_1&lt;/div&gt;&lt;div&gt;&lt;span style=&quot;background-color: rgb(255, 255, 255); color: rgb(71, 71, 71); font-family: Arial, sans-serif; font-size: 14px; text-wrap: wrap;&quot;&gt;☐&amp;nbsp;&lt;/span&gt;BUS_2&lt;/div&gt;&lt;div&gt;&lt;span style=&quot;background-color: rgb(255, 255, 255); color: rgb(71, 71, 71); font-family: Arial, sans-serif; font-size: 14px; text-wrap: wrap;&quot;&gt;☐&amp;nbsp;&lt;/span&gt;Internal_CAN&lt;/div&gt;" style="text;html=1;align=left;verticalAlign=top;resizable=0;points=[];autosize=1;strokeColor=none;fillColor=none;spacingLeft=5;" parent="r0Y1Ve0F3AqfyRtgB-6B-20" vertex="1">
          <mxGeometry y="23" width="110" height="60" as="geometry" />
        </mxCell>
        <mxCell id="r0Y1Ve0F3AqfyRtgB-6B-31" value="" style="group" parent="r0Y1Ve0F3AqfyRtgB-6B-20" vertex="1" connectable="0">
          <mxGeometry x="120" y="23" width="20" height="60" as="geometry" />
        </mxCell>
        <mxCell id="r0Y1Ve0F3AqfyRtgB-6B-32" value="" style="rounded=0;whiteSpace=wrap;html=1;" parent="r0Y1Ve0F3AqfyRtgB-6B-31" vertex="1">
          <mxGeometry width="20" height="60" as="geometry" />
        </mxCell>
        <mxCell id="r0Y1Ve0F3AqfyRtgB-6B-33" value="" style="triangle;whiteSpace=wrap;html=1;rotation=-90;" parent="r0Y1Ve0F3AqfyRtgB-6B-31" vertex="1">
          <mxGeometry x="5" y="2" width="10" height="10" as="geometry" />
        </mxCell>
        <mxCell id="r0Y1Ve0F3AqfyRtgB-6B-34" value="" style="triangle;whiteSpace=wrap;html=1;rotation=90;" parent="r0Y1Ve0F3AqfyRtgB-6B-31" vertex="1">
          <mxGeometry x="5" y="48" width="10" height="10" as="geometry" />
        </mxCell>
        <mxCell id="r0Y1Ve0F3AqfyRtgB-6B-35" value="" style="rounded=1;whiteSpace=wrap;html=1;" parent="r0Y1Ve0F3AqfyRtgB-6B-31" vertex="1">
          <mxGeometry x="5" y="13.5" width="10" height="10" as="geometry" />
        </mxCell>
        <mxCell id="r0Y1Ve0F3AqfyRtgB-6B-22" value="Filter by Signal" style="swimlane;whiteSpace=wrap;html=1;swimlaneLine=1;rounded=1;" parent="1" vertex="1">
          <mxGeometry x="470" y="388" width="140" height="83" as="geometry">
            <mxRectangle x="50" y="260" width="120" height="30" as="alternateBounds" />
          </mxGeometry>
        </mxCell>
        <mxCell id="r0Y1Ve0F3AqfyRtgB-6B-23" value="&lt;div&gt;&lt;span style=&quot;background-color: rgb(255, 255, 255); color: rgb(71, 71, 71); font-family: Arial, sans-serif; font-size: 14px; text-wrap: wrap;&quot;&gt;☐&amp;nbsp;&lt;/span&gt;Voltage&lt;/div&gt;&lt;div&gt;&lt;span style=&quot;background-color: rgb(255, 255, 255); color: rgb(71, 71, 71); font-family: Arial, sans-serif; font-size: 14px; text-wrap: wrap;&quot;&gt;☐&amp;nbsp;&lt;/span&gt;Current&lt;/div&gt;&lt;div&gt;&lt;span style=&quot;background-color: rgb(255, 255, 255); color: rgb(71, 71, 71); font-family: Arial, sans-serif; font-size: 14px; text-wrap: wrap;&quot;&gt;☐&amp;nbsp;&lt;/span&gt;PWM&lt;/div&gt;" style="text;html=1;align=left;verticalAlign=top;resizable=0;points=[];autosize=1;strokeColor=none;fillColor=none;spacingLeft=5;" parent="r0Y1Ve0F3AqfyRtgB-6B-22" vertex="1">
          <mxGeometry y="23" width="80" height="60" as="geometry" />
        </mxCell>
        <mxCell id="r0Y1Ve0F3AqfyRtgB-6B-41" value="" style="group" parent="r0Y1Ve0F3AqfyRtgB-6B-22" vertex="1" connectable="0">
          <mxGeometry x="120" y="23" width="20" height="60" as="geometry" />
        </mxCell>
        <mxCell id="r0Y1Ve0F3AqfyRtgB-6B-42" value="" style="rounded=0;whiteSpace=wrap;html=1;" parent="r0Y1Ve0F3AqfyRtgB-6B-41" vertex="1">
          <mxGeometry width="20" height="60" as="geometry" />
        </mxCell>
        <mxCell id="r0Y1Ve0F3AqfyRtgB-6B-43" value="" style="triangle;whiteSpace=wrap;html=1;rotation=-90;" parent="r0Y1Ve0F3AqfyRtgB-6B-41" vertex="1">
          <mxGeometry x="5" y="2" width="10" height="10" as="geometry" />
        </mxCell>
        <mxCell id="r0Y1Ve0F3AqfyRtgB-6B-44" value="" style="triangle;whiteSpace=wrap;html=1;rotation=90;" parent="r0Y1Ve0F3AqfyRtgB-6B-41" vertex="1">
          <mxGeometry x="5" y="48" width="10" height="10" as="geometry" />
        </mxCell>
        <mxCell id="r0Y1Ve0F3AqfyRtgB-6B-45" value="" style="rounded=1;whiteSpace=wrap;html=1;" parent="r0Y1Ve0F3AqfyRtgB-6B-41" vertex="1">
          <mxGeometry x="5" y="13.5" width="10" height="10" as="geometry" />
        </mxCell>
        <mxCell id="r0Y1Ve0F3AqfyRtgB-6B-24" value="" style="endArrow=none;dashed=1;html=1;rounded=0;" parent="1" edge="1">
          <mxGeometry width="50" height="50" relative="1" as="geometry">
            <mxPoint x="20" y="150" as="sourcePoint" />
            <mxPoint x="810" y="150" as="targetPoint" />
          </mxGeometry>
        </mxCell>
        <mxCell id="r0Y1Ve0F3AqfyRtgB-6B-25" value="" style="endArrow=none;dashed=1;html=1;rounded=0;" parent="1" edge="1">
          <mxGeometry width="50" height="50" relative="1" as="geometry">
            <mxPoint x="19" y="368" as="sourcePoint" />
            <mxPoint x="809" y="368" as="targetPoint" />
          </mxGeometry>
        </mxCell>
        <mxCell id="r0Y1Ve0F3AqfyRtgB-6B-46" value="Box2 content changes according to Box1" style="text;html=1;align=center;verticalAlign=middle;whiteSpace=wrap;rounded=0;rotation=0;" parent="1" vertex="1">
          <mxGeometry x="513" y="149" width="230" height="30" as="geometry" />
        </mxCell>
        <mxCell id="fkARRYzA7Q9jDT48tpWi-1" value="" style="endArrow=none;dashed=1;html=1;rounded=0;" parent="1" edge="1">
          <mxGeometry width="50" height="50" relative="1" as="geometry">
            <mxPoint x="19" y="560" as="sourcePoint" />
            <mxPoint x="809" y="560" as="targetPoint" />
          </mxGeometry>
        </mxCell>
        <mxCell id="fkARRYzA7Q9jDT48tpWi-2" value="Graph" style="text;html=1;align=left;verticalAlign=middle;resizable=0;points=[];autosize=1;strokeColor=none;fillColor=none;fontStyle=1;fontSize=22;" parent="1" vertex="1">
          <mxGeometry x="45" y="570" width="80" height="40" as="geometry" />
        </mxCell>
        <mxCell id="fkARRYzA7Q9jDT48tpWi-3" value="Only become available when Box2 has a valid input.&lt;div&gt;List (content) refers to options selected on Box2.&lt;/div&gt;&lt;div&gt;Itens present in both database and log shall be available.&lt;/div&gt;&lt;div&gt;Itens present in database only shall be grayout.&lt;/div&gt;&lt;div&gt;If list is empty (no valid itens), it shall display &quot;No Items&quot;.&lt;/div&gt;&lt;div&gt;List shall be in alphabetical order.&lt;/div&gt;&lt;div&gt;Box2 shall not occupy more than 1/3 of vertical length.&lt;/div&gt;&lt;div&gt;Scrollbar shall appear if the list cannot fit into max vertical length.&lt;/div&gt;&lt;div&gt;Multiple selection is allowed.&lt;/div&gt;" style="text;html=1;align=left;verticalAlign=top;resizable=0;points=[];autosize=1;strokeColor=none;fillColor=none;" parent="1" vertex="1">
          <mxGeometry x="44" y="610" width="370" height="140" as="geometry" />
        </mxCell>
      </root>
    </mxGraphModel>
  </diagram>
  <diagram id="aQpV0IUiRTzaaPEcv_9w" name="Interface">
    <mxGraphModel dx="212" dy="113" grid="1" gridSize="10" guides="1" tooltips="1" connect="1" arrows="1" fold="1" page="1" pageScale="1" pageWidth="1169" pageHeight="827" math="0" shadow="0">
      <root>
        <mxCell id="0" />
        <mxCell id="1" parent="0" />
        <mxCell id="Uizir1t4mjPQthGlsIEP-1" value="Load Database" style="rounded=1;whiteSpace=wrap;html=1;strokeWidth=2;" vertex="1" parent="1">
          <mxGeometry x="240" y="140" width="140" height="40" as="geometry" />
        </mxCell>
        <mxCell id="uV9pFOfIKjCxSVOBVvwv-1" value="Load Log" style="rounded=1;whiteSpace=wrap;html=1;strokeWidth=2;" vertex="1" parent="1">
          <mxGeometry x="240" y="190" width="140" height="40" as="geometry" />
        </mxCell>
        <mxCell id="BozIUF172iU5V4S-sMGh-1" value="&lt;div style=&quot;font-weight: 400; text-align: left; text-wrap-mode: nowrap;&quot;&gt;Filter by ID&lt;/div&gt;" style="swimlane;whiteSpace=wrap;html=1;swimlaneLine=1;rounded=1;strokeWidth=2;" vertex="1" parent="1">
          <mxGeometry x="240" y="240" width="140" height="113" as="geometry">
            <mxRectangle x="50" y="260" width="120" height="30" as="alternateBounds" />
          </mxGeometry>
        </mxCell>
        <mxCell id="BozIUF172iU5V4S-sMGh-2" value="No Filter&lt;div&gt;&lt;span style=&quot;background-color: rgb(153, 153, 153);&quot;&gt;Filter by ID&lt;/span&gt;&lt;/div&gt;&lt;div&gt;Filter by Node&lt;/div&gt;&lt;div&gt;Filter by ECU&lt;/div&gt;&lt;div&gt;Filter by Network / Bus&lt;/div&gt;" style="text;html=1;align=left;verticalAlign=top;resizable=0;points=[];autosize=1;strokeColor=none;fillColor=none;spacingLeft=5;" vertex="1" parent="BozIUF172iU5V4S-sMGh-1">
          <mxGeometry y="23" width="150" height="90" as="geometry" />
        </mxCell>
        <mxCell id="BozIUF172iU5V4S-sMGh-3" value="Filter by ID" style="swimlane;whiteSpace=wrap;html=1;swimlaneLine=1;rounded=1;strokeWidth=2;" vertex="1" parent="1">
          <mxGeometry x="240" y="360" width="140" height="83" as="geometry">
            <mxRectangle x="50" y="260" width="120" height="30" as="alternateBounds" />
          </mxGeometry>
        </mxCell>
        <mxCell id="BozIUF172iU5V4S-sMGh-4" value="&lt;span style=&quot;color: rgb(71, 71, 71); font-family: Arial, sans-serif; font-size: 14px; text-wrap: wrap; background-color: rgb(255, 255, 255);&quot;&gt;&lt;span style=&quot;color: rgb(0, 0, 0); font-family: &amp;quot;Source Sans Pro&amp;quot;, Roboto, &amp;quot;San Francisco&amp;quot;, &amp;quot;Segoe UI&amp;quot;, sans-serif; text-align: center;&quot;&gt;☑&lt;/span&gt;&amp;nbsp;&lt;/span&gt;0x111&lt;br&gt;&lt;div&gt;&lt;span style=&quot;background-color: rgb(255, 255, 255); color: rgb(71, 71, 71); font-family: Arial, sans-serif; font-size: 14px; text-wrap: wrap;&quot;&gt;☐&amp;nbsp;&lt;/span&gt;0x123&lt;/div&gt;&lt;div&gt;&lt;span style=&quot;background-color: rgb(255, 255, 255); color: rgb(71, 71, 71); font-family: Arial, sans-serif; font-size: 14px; text-wrap: wrap;&quot;&gt;☐&amp;nbsp;&lt;/span&gt;0x1FAABBCC&lt;/div&gt;" style="text;html=1;align=left;verticalAlign=top;resizable=0;points=[];autosize=1;strokeColor=none;fillColor=none;spacingLeft=5;" vertex="1" parent="BozIUF172iU5V4S-sMGh-3">
          <mxGeometry y="23" width="120" height="60" as="geometry" />
        </mxCell>
        <mxCell id="BozIUF172iU5V4S-sMGh-5" value="" style="group;strokeWidth=2;strokeColor=default;" vertex="1" connectable="0" parent="BozIUF172iU5V4S-sMGh-3">
          <mxGeometry x="120" y="23" width="20" height="60" as="geometry" />
        </mxCell>
        <mxCell id="BozIUF172iU5V4S-sMGh-6" value="" style="rounded=0;whiteSpace=wrap;html=1;" vertex="1" parent="BozIUF172iU5V4S-sMGh-5">
          <mxGeometry width="20" height="60" as="geometry" />
        </mxCell>
        <mxCell id="BozIUF172iU5V4S-sMGh-7" value="" style="triangle;whiteSpace=wrap;html=1;rotation=-90;" vertex="1" parent="BozIUF172iU5V4S-sMGh-5">
          <mxGeometry x="5" y="2" width="10" height="10" as="geometry" />
        </mxCell>
        <mxCell id="BozIUF172iU5V4S-sMGh-8" value="" style="triangle;whiteSpace=wrap;html=1;rotation=90;" vertex="1" parent="BozIUF172iU5V4S-sMGh-5">
          <mxGeometry x="5" y="48" width="10" height="10" as="geometry" />
        </mxCell>
        <mxCell id="BozIUF172iU5V4S-sMGh-9" value="" style="rounded=1;whiteSpace=wrap;html=1;" vertex="1" parent="BozIUF172iU5V4S-sMGh-5">
          <mxGeometry x="5" y="13.5" width="10" height="10" as="geometry" />
        </mxCell>
        <mxCell id="BozIUF172iU5V4S-sMGh-10" value="Filter by Signal" style="swimlane;whiteSpace=wrap;html=1;swimlaneLine=1;rounded=1;strokeWidth=2;" vertex="1" parent="1">
          <mxGeometry x="240" y="450" width="140" height="83" as="geometry">
            <mxRectangle x="50" y="260" width="120" height="30" as="alternateBounds" />
          </mxGeometry>
        </mxCell>
        <mxCell id="BozIUF172iU5V4S-sMGh-11" value="&lt;div style=&quot;font-size: 14px;&quot;&gt;&lt;span style=&quot;background-color: rgb(255, 255, 255); font-family: Arial, sans-serif; text-wrap: wrap;&quot;&gt;&lt;span style=&quot;font-family: &amp;quot;Source Sans Pro&amp;quot;, Roboto, &amp;quot;San Francisco&amp;quot;, &amp;quot;Segoe UI&amp;quot;, sans-serif; text-align: center;&quot;&gt;&lt;font style=&quot;font-size: 14px;&quot;&gt;☑&lt;/font&gt;&lt;/span&gt;&lt;span style=&quot;font-size: 14px;&quot;&gt;&amp;nbsp;&lt;/span&gt;&lt;/span&gt;&lt;span style=&quot;background-color: rgb(255, 217, 102);&quot;&gt;Voltage&lt;/span&gt;&lt;/div&gt;&lt;div&gt;&lt;span style=&quot;background-color: rgb(255, 255, 255); color: rgb(71, 71, 71); font-family: Arial, sans-serif; font-size: 14px; text-wrap: wrap;&quot;&gt;&lt;span style=&quot;font-family: &amp;quot;Source Sans Pro&amp;quot;, Roboto, &amp;quot;San Francisco&amp;quot;, &amp;quot;Segoe UI&amp;quot;, sans-serif; text-align: center; color: rgb(0, 0, 0);&quot;&gt;☑&lt;/span&gt;&amp;nbsp;&lt;/span&gt;&lt;span style=&quot;background-color: rgb(126, 166, 224);&quot;&gt;Current&lt;/span&gt;&lt;/div&gt;&lt;div&gt;&lt;span style=&quot;background-color: rgb(255, 255, 255); color: rgb(71, 71, 71); font-family: Arial, sans-serif; font-size: 14px; text-wrap: wrap;&quot;&gt;☐&amp;nbsp;&lt;/span&gt;PWM&lt;/div&gt;" style="text;html=1;align=left;verticalAlign=top;resizable=0;points=[];autosize=1;strokeColor=none;fillColor=none;spacingLeft=5;" vertex="1" parent="BozIUF172iU5V4S-sMGh-10">
          <mxGeometry y="23" width="90" height="60" as="geometry" />
        </mxCell>
        <mxCell id="BozIUF172iU5V4S-sMGh-12" value="" style="group;strokeWidth=2;strokeColor=default;" vertex="1" connectable="0" parent="BozIUF172iU5V4S-sMGh-10">
          <mxGeometry x="120" y="23" width="20" height="60" as="geometry" />
        </mxCell>
        <mxCell id="BozIUF172iU5V4S-sMGh-13" value="" style="rounded=0;whiteSpace=wrap;html=1;" vertex="1" parent="BozIUF172iU5V4S-sMGh-12">
          <mxGeometry width="20" height="60" as="geometry" />
        </mxCell>
        <mxCell id="BozIUF172iU5V4S-sMGh-14" value="" style="triangle;whiteSpace=wrap;html=1;rotation=-90;" vertex="1" parent="BozIUF172iU5V4S-sMGh-12">
          <mxGeometry x="5" y="2" width="10" height="10" as="geometry" />
        </mxCell>
        <mxCell id="BozIUF172iU5V4S-sMGh-15" value="" style="triangle;whiteSpace=wrap;html=1;rotation=90;" vertex="1" parent="BozIUF172iU5V4S-sMGh-12">
          <mxGeometry x="5" y="48" width="10" height="10" as="geometry" />
        </mxCell>
        <mxCell id="BozIUF172iU5V4S-sMGh-16" value="" style="rounded=1;whiteSpace=wrap;html=1;" vertex="1" parent="BozIUF172iU5V4S-sMGh-12">
          <mxGeometry x="5" y="13.5" width="10" height="10" as="geometry" />
        </mxCell>
        <mxCell id="BozIUF172iU5V4S-sMGh-19" value="" style="rounded=1;whiteSpace=wrap;html=1;arcSize=4;strokeWidth=2;" vertex="1" parent="1">
          <mxGeometry x="400" y="140" width="560" height="390" as="geometry" />
        </mxCell>
        <mxCell id="BozIUF172iU5V4S-sMGh-20" value="AUTO" style="rounded=1;whiteSpace=wrap;html=1;arcSize=50;fontSize=10;" vertex="1" parent="1">
          <mxGeometry x="410" y="150" width="50" height="20" as="geometry" />
        </mxCell>
        <mxCell id="BozIUF172iU5V4S-sMGh-23" value="" style="line;strokeWidth=2;direction=south;html=1;" vertex="1" parent="1">
          <mxGeometry x="430" y="180" width="10" height="330" as="geometry" />
        </mxCell>
        <mxCell id="BozIUF172iU5V4S-sMGh-24" value="" style="line;strokeWidth=2;html=1;" vertex="1" parent="1">
          <mxGeometry x="420" y="490" width="520" height="10" as="geometry" />
        </mxCell>
        <mxCell id="BozIUF172iU5V4S-sMGh-25" value="" style="shape=partialRectangle;whiteSpace=wrap;html=1;bottom=1;right=1;left=1;top=0;fillColor=none;routingCenterX=-0.5;rotation=-90;" vertex="1" parent="1">
          <mxGeometry x="405" y="465" width="50" height="10" as="geometry" />
        </mxCell>
        <mxCell id="BozIUF172iU5V4S-sMGh-26" value="" style="shape=partialRectangle;whiteSpace=wrap;html=1;bottom=1;right=1;left=1;top=0;fillColor=none;routingCenterX=-0.5;rotation=-90;" vertex="1" parent="1">
          <mxGeometry x="405" y="414" width="50" height="10" as="geometry" />
        </mxCell>
        <mxCell id="BozIUF172iU5V4S-sMGh-27" value="" style="shape=partialRectangle;whiteSpace=wrap;html=1;bottom=1;right=1;left=1;top=0;fillColor=none;routingCenterX=-0.5;rotation=-90;" vertex="1" parent="1">
          <mxGeometry x="405" y="363" width="50" height="10" as="geometry" />
        </mxCell>
        <mxCell id="BozIUF172iU5V4S-sMGh-28" value="" style="shape=partialRectangle;whiteSpace=wrap;html=1;bottom=1;right=1;left=1;top=0;fillColor=none;routingCenterX=-0.5;rotation=-90;" vertex="1" parent="1">
          <mxGeometry x="405" y="312" width="50" height="10" as="geometry" />
        </mxCell>
        <mxCell id="BozIUF172iU5V4S-sMGh-29" value="" style="shape=partialRectangle;whiteSpace=wrap;html=1;bottom=1;right=1;left=1;top=0;fillColor=none;routingCenterX=-0.5;rotation=-90;" vertex="1" parent="1">
          <mxGeometry x="405" y="261" width="50" height="10" as="geometry" />
        </mxCell>
        <mxCell id="BozIUF172iU5V4S-sMGh-30" value="" style="shape=partialRectangle;whiteSpace=wrap;html=1;bottom=1;right=1;left=1;top=0;fillColor=none;routingCenterX=-0.5;rotation=-90;" vertex="1" parent="1">
          <mxGeometry x="405" y="210" width="50" height="10" as="geometry" />
        </mxCell>
        <mxCell id="BozIUF172iU5V4S-sMGh-38" value="" style="group;rotation=-90;" vertex="1" connectable="0" parent="1">
          <mxGeometry x="582" y="348" width="10" height="305" as="geometry" />
        </mxCell>
        <mxCell id="BozIUF172iU5V4S-sMGh-32" value="" style="shape=partialRectangle;whiteSpace=wrap;html=1;bottom=1;right=1;left=1;top=0;fillColor=none;routingCenterX=-0.5;rotation=-180;" vertex="1" parent="BozIUF172iU5V4S-sMGh-38">
          <mxGeometry x="108" y="148" width="50" height="10" as="geometry" />
        </mxCell>
        <mxCell id="BozIUF172iU5V4S-sMGh-33" value="" style="shape=partialRectangle;whiteSpace=wrap;html=1;bottom=1;right=1;left=1;top=0;fillColor=none;routingCenterX=-0.5;rotation=-180;" vertex="1" parent="BozIUF172iU5V4S-sMGh-38">
          <mxGeometry x="57" y="148" width="50" height="10" as="geometry" />
        </mxCell>
        <mxCell id="BozIUF172iU5V4S-sMGh-34" value="" style="shape=partialRectangle;whiteSpace=wrap;html=1;bottom=1;right=1;left=1;top=0;fillColor=none;routingCenterX=-0.5;rotation=-180;" vertex="1" parent="BozIUF172iU5V4S-sMGh-38">
          <mxGeometry x="6" y="148" width="50" height="10" as="geometry" />
        </mxCell>
        <mxCell id="BozIUF172iU5V4S-sMGh-35" value="" style="shape=partialRectangle;whiteSpace=wrap;html=1;bottom=1;right=1;left=1;top=0;fillColor=none;routingCenterX=-0.5;rotation=-180;" vertex="1" parent="BozIUF172iU5V4S-sMGh-38">
          <mxGeometry x="-45" y="148" width="50" height="10" as="geometry" />
        </mxCell>
        <mxCell id="BozIUF172iU5V4S-sMGh-36" value="" style="shape=partialRectangle;whiteSpace=wrap;html=1;bottom=1;right=1;left=1;top=0;fillColor=none;routingCenterX=-0.5;rotation=-180;" vertex="1" parent="BozIUF172iU5V4S-sMGh-38">
          <mxGeometry x="-96" y="148" width="50" height="10" as="geometry" />
        </mxCell>
        <mxCell id="BozIUF172iU5V4S-sMGh-37" value="" style="shape=partialRectangle;whiteSpace=wrap;html=1;bottom=1;right=1;left=1;top=0;fillColor=none;routingCenterX=-0.5;rotation=-180;" vertex="1" parent="BozIUF172iU5V4S-sMGh-38">
          <mxGeometry x="-147" y="148" width="50" height="10" as="geometry" />
        </mxCell>
        <mxCell id="BozIUF172iU5V4S-sMGh-21" value="AUTO" style="rounded=1;whiteSpace=wrap;html=1;arcSize=50;fontSize=10;" vertex="1" parent="1">
          <mxGeometry x="900" y="500" width="50" height="20" as="geometry" />
        </mxCell>
        <mxCell id="BozIUF172iU5V4S-sMGh-43" value="13:01" style="text;html=1;align=center;verticalAlign=middle;whiteSpace=wrap;rounded=0;fontSize=9;" vertex="1" parent="1">
          <mxGeometry x="418" y="500" width="35" height="30" as="geometry" />
        </mxCell>
        <mxCell id="BozIUF172iU5V4S-sMGh-44" value="20.630" style="text;html=1;align=center;verticalAlign=middle;whiteSpace=wrap;rounded=0;fontSize=7;fontColor=#8f8f8f;" vertex="1" parent="1">
          <mxGeometry x="418" y="509" width="35" height="30" as="geometry" />
        </mxCell>
        <mxCell id="BozIUF172iU5V4S-sMGh-45" value="13:01" style="text;html=1;align=center;verticalAlign=middle;whiteSpace=wrap;rounded=0;fontSize=9;" vertex="1" parent="1">
          <mxGeometry x="468" y="500" width="35" height="30" as="geometry" />
        </mxCell>
        <mxCell id="BozIUF172iU5V4S-sMGh-46" value="20.730" style="text;html=1;align=center;verticalAlign=middle;whiteSpace=wrap;rounded=0;fontSize=7;fontColor=#8f8f8f;" vertex="1" parent="1">
          <mxGeometry x="468" y="509" width="35" height="30" as="geometry" />
        </mxCell>
        <mxCell id="BozIUF172iU5V4S-sMGh-47" value="13:01" style="text;html=1;align=center;verticalAlign=middle;whiteSpace=wrap;rounded=0;fontSize=9;" vertex="1" parent="1">
          <mxGeometry x="519" y="500" width="35" height="30" as="geometry" />
        </mxCell>
        <mxCell id="BozIUF172iU5V4S-sMGh-48" value="20.830" style="text;html=1;align=center;verticalAlign=middle;whiteSpace=wrap;rounded=0;fontSize=7;fontColor=#8f8f8f;" vertex="1" parent="1">
          <mxGeometry x="519" y="509" width="35" height="30" as="geometry" />
        </mxCell>
        <mxCell id="BozIUF172iU5V4S-sMGh-49" value="13:01" style="text;html=1;align=center;verticalAlign=middle;whiteSpace=wrap;rounded=0;fontSize=9;" vertex="1" parent="1">
          <mxGeometry x="570" y="500" width="35" height="30" as="geometry" />
        </mxCell>
        <mxCell id="BozIUF172iU5V4S-sMGh-50" value="20.930" style="text;html=1;align=center;verticalAlign=middle;whiteSpace=wrap;rounded=0;fontSize=7;fontColor=#8f8f8f;" vertex="1" parent="1">
          <mxGeometry x="570" y="509" width="35" height="30" as="geometry" />
        </mxCell>
        <mxCell id="BozIUF172iU5V4S-sMGh-51" value="13:01" style="text;html=1;align=center;verticalAlign=middle;whiteSpace=wrap;rounded=0;fontSize=9;" vertex="1" parent="1">
          <mxGeometry x="621" y="500" width="35" height="30" as="geometry" />
        </mxCell>
        <mxCell id="BozIUF172iU5V4S-sMGh-52" value="21.030" style="text;html=1;align=center;verticalAlign=middle;whiteSpace=wrap;rounded=0;fontSize=7;fontColor=#8f8f8f;" vertex="1" parent="1">
          <mxGeometry x="621" y="509" width="35" height="30" as="geometry" />
        </mxCell>
        <mxCell id="BozIUF172iU5V4S-sMGh-53" value="13:01" style="text;html=1;align=center;verticalAlign=middle;whiteSpace=wrap;rounded=0;fontSize=9;" vertex="1" parent="1">
          <mxGeometry x="672" y="500" width="35" height="30" as="geometry" />
        </mxCell>
        <mxCell id="BozIUF172iU5V4S-sMGh-54" value="21.130" style="text;html=1;align=center;verticalAlign=middle;whiteSpace=wrap;rounded=0;fontSize=7;fontColor=#8f8f8f;" vertex="1" parent="1">
          <mxGeometry x="672" y="509" width="35" height="30" as="geometry" />
        </mxCell>
        <mxCell id="BozIUF172iU5V4S-sMGh-55" value="13:01" style="text;html=1;align=center;verticalAlign=middle;whiteSpace=wrap;rounded=0;fontSize=9;" vertex="1" parent="1">
          <mxGeometry x="723" y="500" width="35" height="30" as="geometry" />
        </mxCell>
        <mxCell id="BozIUF172iU5V4S-sMGh-56" value="21.230" style="text;html=1;align=center;verticalAlign=middle;whiteSpace=wrap;rounded=0;fontSize=7;fontColor=#8f8f8f;" vertex="1" parent="1">
          <mxGeometry x="723" y="509" width="35" height="30" as="geometry" />
        </mxCell>
        <mxCell id="BozIUF172iU5V4S-sMGh-57" value="13:01" style="text;html=1;align=center;verticalAlign=middle;whiteSpace=wrap;rounded=0;fontSize=9;" vertex="1" parent="1">
          <mxGeometry x="774" y="500" width="35" height="30" as="geometry" />
        </mxCell>
        <mxCell id="BozIUF172iU5V4S-sMGh-58" value="21.330" style="text;html=1;align=center;verticalAlign=middle;whiteSpace=wrap;rounded=0;fontSize=7;fontColor=#8f8f8f;" vertex="1" parent="1">
          <mxGeometry x="774" y="509" width="35" height="30" as="geometry" />
        </mxCell>
        <mxCell id="BozIUF172iU5V4S-sMGh-59" value="13:01" style="text;html=1;align=center;verticalAlign=middle;whiteSpace=wrap;rounded=0;fontSize=9;" vertex="1" parent="1">
          <mxGeometry x="825" y="500" width="35" height="30" as="geometry" />
        </mxCell>
        <mxCell id="BozIUF172iU5V4S-sMGh-60" value="21.430" style="text;html=1;align=center;verticalAlign=middle;whiteSpace=wrap;rounded=0;fontSize=7;fontColor=#8f8f8f;" vertex="1" parent="1">
          <mxGeometry x="825" y="509" width="35" height="30" as="geometry" />
        </mxCell>
        <mxCell id="BozIUF172iU5V4S-sMGh-61" value="0" style="text;html=1;align=center;verticalAlign=middle;whiteSpace=wrap;rounded=0;fontSize=9;" vertex="1" parent="1">
          <mxGeometry x="395" y="480" width="35" height="30" as="geometry" />
        </mxCell>
        <mxCell id="BozIUF172iU5V4S-sMGh-62" value="5" style="text;html=1;align=center;verticalAlign=middle;whiteSpace=wrap;rounded=0;fontSize=9;" vertex="1" parent="1">
          <mxGeometry x="395" y="430" width="35" height="30" as="geometry" />
        </mxCell>
        <mxCell id="BozIUF172iU5V4S-sMGh-63" value="10" style="text;html=1;align=center;verticalAlign=middle;whiteSpace=wrap;rounded=0;fontSize=9;" vertex="1" parent="1">
          <mxGeometry x="395" y="379" width="35" height="30" as="geometry" />
        </mxCell>
        <mxCell id="BozIUF172iU5V4S-sMGh-64" value="15" style="text;html=1;align=center;verticalAlign=middle;whiteSpace=wrap;rounded=0;fontSize=9;" vertex="1" parent="1">
          <mxGeometry x="395" y="328" width="35" height="30" as="geometry" />
        </mxCell>
        <mxCell id="BozIUF172iU5V4S-sMGh-65" value="20" style="text;html=1;align=center;verticalAlign=middle;whiteSpace=wrap;rounded=0;fontSize=9;" vertex="1" parent="1">
          <mxGeometry x="395" y="277" width="35" height="30" as="geometry" />
        </mxCell>
        <mxCell id="BozIUF172iU5V4S-sMGh-66" value="25" style="text;html=1;align=center;verticalAlign=middle;whiteSpace=wrap;rounded=0;fontSize=9;" vertex="1" parent="1">
          <mxGeometry x="395" y="226" width="35" height="30" as="geometry" />
        </mxCell>
        <mxCell id="BozIUF172iU5V4S-sMGh-67" value="30" style="text;html=1;align=center;verticalAlign=middle;whiteSpace=wrap;rounded=0;fontSize=9;" vertex="1" parent="1">
          <mxGeometry x="395" y="175" width="35" height="30" as="geometry" />
        </mxCell>
        <mxCell id="BozIUF172iU5V4S-sMGh-39" value="" style="shape=partialRectangle;whiteSpace=wrap;html=1;bottom=1;right=1;left=1;top=0;fillColor=none;routingCenterX=-0.5;rotation=-180;" vertex="1" parent="1">
          <mxGeometry x="843" y="496" width="50" height="10" as="geometry" />
        </mxCell>
        <mxCell id="BozIUF172iU5V4S-sMGh-40" value="" style="shape=partialRectangle;whiteSpace=wrap;html=1;bottom=1;right=1;left=1;top=0;fillColor=none;routingCenterX=-0.5;rotation=-180;" vertex="1" parent="1">
          <mxGeometry x="792" y="496" width="50" height="10" as="geometry" />
        </mxCell>
        <mxCell id="BozIUF172iU5V4S-sMGh-41" value="" style="shape=partialRectangle;whiteSpace=wrap;html=1;bottom=1;right=1;left=1;top=0;fillColor=none;routingCenterX=-0.5;rotation=-180;" vertex="1" parent="1">
          <mxGeometry x="741" y="496" width="50" height="10" as="geometry" />
        </mxCell>
        <mxCell id="BozIUF172iU5V4S-sMGh-69" value="" style="verticalLabelPosition=bottom;verticalAlign=top;html=1;shape=mxgraph.basic.patternFillRect;fillStyle=grid;step=5;fillStrokeWidth=0.2;fillStrokeColor=#dddddd;" vertex="1" parent="1">
          <mxGeometry x="436" y="185" width="500" height="310" as="geometry" />
        </mxCell>
        <mxCell id="BozIUF172iU5V4S-sMGh-71" value="" style="pointerEvents=1;verticalLabelPosition=bottom;shadow=0;dashed=0;align=center;html=1;verticalAlign=top;shape=mxgraph.electrical.waveforms.slow_square_wave;strokeColor=#FFD966;strokeWidth=3;" vertex="1" parent="1">
          <mxGeometry x="436" y="328" width="344" height="30" as="geometry" />
        </mxCell>
        <mxCell id="BozIUF172iU5V4S-sMGh-72" value="" style="pointerEvents=1;verticalLabelPosition=bottom;shadow=0;dashed=0;align=center;html=1;verticalAlign=top;shape=mxgraph.electrical.waveforms.slow_square_wave;strokeColor=#FFD966;strokeWidth=3;" vertex="1" parent="1">
          <mxGeometry x="780" y="286" width="120" height="118" as="geometry" />
        </mxCell>
        <mxCell id="BozIUF172iU5V4S-sMGh-73" value="" style="pointerEvents=1;verticalLabelPosition=bottom;shadow=0;dashed=0;align=center;html=1;verticalAlign=top;shape=mxgraph.electrical.waveforms.slow_square_wave;strokeColor=#7EA6E0;strokeWidth=3;" vertex="1" parent="1">
          <mxGeometry x="436" y="449" width="264" height="21" as="geometry" />
        </mxCell>
        <mxCell id="BozIUF172iU5V4S-sMGh-74" value="" style="pointerEvents=1;verticalLabelPosition=bottom;shadow=0;dashed=0;align=center;html=1;verticalAlign=top;shape=mxgraph.electrical.waveforms.slow_square_wave;strokeColor=#7EA6E0;strokeWidth=3;rotation=-180;" vertex="1" parent="1">
          <mxGeometry x="696" y="450" width="210" height="21" as="geometry" />
        </mxCell>
        <mxCell id="BozIUF172iU5V4S-sMGh-75" value="" style="sketch=0;outlineConnect=0;fontColor=#232F3E;gradientColor=none;fillColor=#232F3D;strokeColor=none;dashed=0;verticalLabelPosition=bottom;verticalAlign=top;align=center;html=1;fontSize=12;fontStyle=0;aspect=fixed;pointerEvents=1;shape=mxgraph.aws4.magnifying_glass_2;" vertex="1" parent="1">
          <mxGeometry x="358" y="570" width="60" height="60" as="geometry" />
        </mxCell>
        <mxCell id="BozIUF172iU5V4S-sMGh-82" value="" style="group" vertex="1" connectable="0" parent="1">
          <mxGeometry x="786.9116794719448" y="281.85167947194475" width="28.176641056110384" height="29.301086987239557" as="geometry" />
        </mxCell>
        <mxCell id="BozIUF172iU5V4S-sMGh-81" value="" style="rounded=0;whiteSpace=wrap;html=1;rotation=50;" vertex="1" parent="BozIUF172iU5V4S-sMGh-82">
          <mxGeometry x="16.488320528055283" y="18.078320528055258" width="10" height="9" as="geometry" />
        </mxCell>
        <mxCell id="BozIUF172iU5V4S-sMGh-80" value="" style="triangle;whiteSpace=wrap;html=1;dashed=0;direction=south;rotation=-220;" vertex="1" parent="BozIUF172iU5V4S-sMGh-82">
          <mxGeometry x="4.088320528055192" y="4.088320528055192" width="20" height="20" as="geometry" />
        </mxCell>
      </root>
    </mxGraphModel>
  </diagram>
  <diagram id="IFJj5KpsmoVpC6SbMqYT" name="Data Interface">
    <mxGraphModel dx="453" dy="631" grid="1" gridSize="10" guides="1" tooltips="1" connect="1" arrows="1" fold="1" page="1" pageScale="1" pageWidth="827" pageHeight="1169" math="0" shadow="0">
      <root>
        <mxCell id="0" />
        <mxCell id="1" parent="0" />
        <mxCell id="yLeAGDOEeLCJcDmKeQ3W-1" value="&lt;div&gt;const appState = {&lt;/div&gt;&lt;div&gt;&lt;span style=&quot;background-color: transparent; color: light-dark(rgb(0, 0, 0), rgb(255, 255, 255));&quot;&gt;&amp;nbsp; &amp;nbsp; ECUs: [&#39;ECU1&#39;, &#39;ECU2&#39;, ...],&lt;/span&gt;&lt;/div&gt;&lt;div&gt;&amp;nbsp; &amp;nbsp; IDs: [&lt;span style=&quot;background-color: transparent; color: light-dark(rgb(0, 0, 0), rgb(255, 255, 255));&quot;&gt;&#39;0x100&#39;, &#39;0X1FF&#39;, ...&lt;/span&gt;&lt;span style=&quot;background-color: transparent; color: light-dark(rgb(0, 0, 0), rgb(255, 255, 255));&quot;&gt;],&lt;/span&gt;&lt;/div&gt;&lt;div&gt;&amp;nbsp; &amp;nbsp; Nodes: [&#39;ND1&#39;, &#39;ND2&#39;, ...],&lt;/div&gt;" style="text;html=1;align=left;verticalAlign=middle;whiteSpace=wrap;rounded=0;" vertex="1" parent="1">
          <mxGeometry x="70" y="160" width="230" height="110" as="geometry" />
        </mxCell>
        <mxCell id="yLeAGDOEeLCJcDmKeQ3W-2" value="DBC, SYM, etc" style="text;html=1;align=center;verticalAlign=middle;whiteSpace=wrap;rounded=0;" vertex="1" parent="1">
          <mxGeometry x="40" y="40" width="140" height="30" as="geometry" />
        </mxCell>
        <mxCell id="sbRcUKwQ8CzZJP_0aFrg-1" value="" style="strokeWidth=2;html=1;shape=mxgraph.flowchart.annotation_2;align=left;labelPosition=right;pointerEvents=1;rotation=-180;" vertex="1" parent="1">
          <mxGeometry x="225" y="191" width="20" height="50" as="geometry" />
        </mxCell>
        <mxCell id="sbRcUKwQ8CzZJP_0aFrg-2" value="Will be used to populate the checkboxes" style="text;html=1;align=center;verticalAlign=middle;whiteSpace=wrap;rounded=0;" vertex="1" parent="1">
          <mxGeometry x="230" y="200" width="110" height="30" as="geometry" />
        </mxCell>
        <mxCell id="sbRcUKwQ8CzZJP_0aFrg-3" value="" style="whiteSpace=wrap;html=1;shape=mxgraph.basic.document" vertex="1" parent="1">
          <mxGeometry x="30" y="90" width="50" height="50" as="geometry" />
        </mxCell>
        <mxCell id="sbRcUKwQ8CzZJP_0aFrg-4" value="" style="whiteSpace=wrap;html=1;shape=mxgraph.basic.document" vertex="1" parent="1">
          <mxGeometry x="85" y="90" width="50" height="50" as="geometry" />
        </mxCell>
        <mxCell id="sbRcUKwQ8CzZJP_0aFrg-5" value="" style="whiteSpace=wrap;html=1;shape=mxgraph.basic.document" vertex="1" parent="1">
          <mxGeometry x="139" y="90" width="50" height="50" as="geometry" />
        </mxCell>
      </root>
    </mxGraphModel>
  </diagram>
</mxfile>
